<?xml version="1.0" standalone="no"?>
<!DOCTYPE svg PUBLIC "-//W3C//DTD SVG 20010904//EN"
 "http://www.w3.org/TR/2001/REC-SVG-20010904/DTD/svg10.dtd">
<svg version="1.0" xmlns="http://www.w3.org/2000/svg"
 width="80.000000pt" height="80.000000pt" viewBox="0 0 80.000000 80.000000"
 preserveAspectRatio="xMidYMid meet">
<metadata>
Created by potrace 1.14, written by Peter Selinger 2001-2017
</metadata>
<g transform="translate(0.000000,80.000000) scale(0.100000,-0.100000)"
fill="#000000" stroke="none">
<path d="M0 790 c0 -5 4 -10 9 -10 6 0 13 5 16 10 3 6 -1 10 -9 10 -9 0 -16
-4 -16 -10z"/>
<path d="M368 778 c-2 -19 -9 -23 -37 -21 -24 1 -30 -1 -20 -8 8 -5 24 -9 36
-9 31 0 53 -10 53 -25 0 -8 20 -15 53 -19 69 -9 125 -26 138 -43 23 -27 29
-12 8 17 -17 23 -22 41 -20 80 l2 50 -105 0 c-101 0 -105 -1 -108 -22z"/>
<path d="M137 779 c-24 -14 -23 -59 2 -59 11 0 23 5 26 10 3 6 15 10 27 10 17
0 19 2 8 16 -21 25 -44 33 -63 23z"/>
<path d="M219 684 c-12 -15 -11 -16 9 -10 13 5 22 3 22 -3 0 -6 9 -11 20 -11
13 0 20 7 20 20 0 15 -7 20 -29 20 -16 0 -35 -7 -42 -16z"/>
<path d="M605 680 c3 -5 8 -10 11 -10 2 0 4 5 4 10 0 6 -5 10 -11 10 -5 0 -7
-4 -4 -10z"/>
<path d="M185 660 c-3 -5 -1 -10 4 -10 6 0 11 5 11 10 0 6 -2 10 -4 10 -3 0
-8 -4 -11 -10z"/>
<path d="M715 652 c-52 -30 -58 -40 -28 -45 26 -4 26 -5 7 -11 -16 -6 -20 -14
-17 -29 4 -18 3 -20 -7 -7 -10 13 -11 13 -7 -1 3 -10 11 -35 18 -57 7 -24 19
-42 30 -45 14 -4 19 -14 19 -41 0 -20 -4 -36 -10 -36 -5 0 -10 5 -10 11 0 5
-4 7 -10 4 -5 -3 -10 0 -10 7 0 10 -3 9 -10 -2 -8 -12 -10 -12 -15 2 -4 10 -4
21 -1 26 7 12 -17 22 -53 22 -23 0 -33 -9 -54 -49 -28 -51 -50 -74 -74 -77 -8
-1 -21 -11 -29 -21 -7 -10 -14 -15 -14 -11 0 7 29 75 50 119 17 34 22 128 10
184 l-12 59 -23 -50 c-12 -27 -27 -72 -33 -99 -6 -28 -21 -73 -34 -100 l-23
-50 -5 95 c-4 65 -7 84 -11 60 -5 -28 -6 -23 -8 25 -1 55 -3 58 -16 41 -8 -11
-15 -14 -15 -7 0 7 -5 9 -10 6 -6 -4 -8 -11 -5 -16 3 -5 0 -6 -8 -3 -9 3 -17
-3 -20 -18 -4 -13 -22 -47 -40 -76 -30 -46 -36 -50 -48 -36 -10 12 -10 24 -2
57 8 28 8 49 1 66 l-10 26 -11 -23 c-8 -18 -8 -25 2 -31 10 -7 10 -13 2 -30
-16 -30 -35 -27 -27 5 l7 25 -31 -22 c-16 -13 -30 -26 -30 -31 0 -4 -9 -17
-21 -29 -11 -11 -18 -27 -15 -35 11 -28 -15 -13 -28 16 -7 17 -15 27 -19 23
-11 -10 -8 -68 4 -80 8 -8 8 -17 0 -31 -7 -13 -11 -83 -11 -176 l0 -156 96 0
c94 0 96 0 125 31 l29 31 0 -31 0 -31 275 0 275 0 0 335 0 335 -27 0 c-16 0
-41 -8 -58 -18z m-262 -254 c-3 -16 -12 -28 -20 -28 -12 0 -11 5 3 30 21 35
24 34 17 -2z m305 -104 c-4 -3 -22 2 -41 11 -28 13 -33 20 -29 41 l5 26 35
-36 c20 -19 33 -38 30 -42z m-274 2 c-3 -9 -10 -16 -15 -16 -6 0 -5 9 1 21 13
24 24 20 14 -5z m183 -32 c9 -8 22 -13 31 -9 8 3 21 -3 28 -12 17 -23 17 -33
2 -33 -7 0 -30 -5 -50 -11 -38 -10 -52 -29 -23 -29 9 0 18 -6 21 -14 3 -8 15
-16 26 -19 17 -5 19 -11 13 -34 -9 -37 -10 -38 -34 -14 -12 12 -25 21 -30 21
-16 0 -40 57 -29 68 7 7 3 12 -11 17 -29 9 -26 39 5 64 32 25 31 25 51 5z
m-207 -35 c0 -27 -2 -30 -15 -19 -11 9 -12 17 -4 31 14 27 19 24 19 -12z m273
-55 c-3 -8 -12 -13 -20 -10 -8 3 -20 6 -26 6 -7 1 -1 7 13 14 28 16 42 12 33
-10z m-327 -82 c-8 -7 -36 6 -36 18 0 5 4 10 9 10 5 0 7 10 5 23 -3 12 2 7 11
-12 8 -19 13 -36 11 -39z"/>
<path d="M580 538 c0 -3 -7 -22 -15 -42 -8 -20 -13 -36 -11 -36 9 0 39 71 32
77 -3 3 -6 4 -6 1z"/>
</g>
</svg>
